<svg width="1722" height="904" viewBox="0 0 1722 904" fill="none" xmlns="http://www.w3.org/2000/svg">
<path d="M-100.625 0L1821.89 0V520.468H-100.625V0ZM-100.625 820.6L-71.7873 799.162C-42.9496 777.724 16.3278 734.848 74.0032 756.286C131.679 777.724 190.956 863.477 248.631 892.061C307.909 920.645 365.584 892.061 423.26 856.331C482.537 820.6 540.212 777.724 597.888 734.848C657.165 691.972 714.841 649.096 772.516 620.512C831.793 591.928 889.469 577.636 948.746 620.512C1006.42 663.388 1064.1 763.432 1123.37 777.724C1181.05 792.016 1238.73 720.556 1298 720.556C1355.68 720.556 1413.35 792.016 1472.63 820.6C1530.31 849.184 1589.58 834.892 1647.26 777.724C1704.93 720.556 1764.21 620.512 1793.05 570.49L1821.89 520.468H1793.05C1764.21 520.468 1704.93 520.468 1647.26 520.468C1589.58 520.468 1530.31 520.468 1472.63 520.468C1413.35 520.468 1355.68 520.468 1298 520.468C1238.73 520.468 1181.05 520.468 1123.37 520.468C1064.1 520.468 1006.42 520.468 948.746 520.468C889.469 520.468 831.793 520.468 772.516 520.468C714.841 520.468 657.165 520.468 597.888 520.468C540.212 520.468 482.537 520.468 423.26 520.468C365.584 520.468 307.909 520.468 248.631 520.468C190.956 520.468 131.679 520.468 74.0032 520.468C16.3278 520.468 -42.9496 520.468 -71.7873 520.468H-100.625V820.6Z" fill="#F5FCFF"/>
<path fill-rule="evenodd" clip-rule="evenodd" d="M-100.625 0L1821.89 0V520.468H-100.625V0ZM-100.625 820.6L-71.7873 799.162C-42.9496 777.724 16.3278 734.848 74.0032 756.286C131.679 777.724 190.956 863.477 248.631 892.061C307.909 920.645 365.584 892.061 423.26 856.331C482.537 820.6 540.212 777.724 597.888 734.848C657.165 691.972 714.841 649.096 772.516 620.512C831.793 591.928 889.469 577.636 948.746 620.512C1006.42 663.388 1064.1 763.432 1123.37 777.724C1181.05 792.016 1238.73 720.556 1298 720.556C1355.68 720.556 1413.35 792.016 1472.63 820.6C1530.31 849.184 1589.58 834.892 1647.26 777.724C1704.93 720.556 1764.21 620.512 1793.05 570.49L1821.89 520.468H1793.05C1764.21 520.468 1704.93 520.468 1647.26 520.468C1589.58 520.468 1530.31 520.468 1472.63 520.468C1413.35 520.468 1355.68 520.468 1298 520.468C1238.73 520.468 1181.05 520.468 1123.37 520.468C1064.1 520.468 1006.42 520.468 948.746 520.468C889.469 520.468 831.793 520.468 772.516 520.468C714.841 520.468 657.165 520.468 597.888 520.468C540.212 520.468 482.537 520.468 423.26 520.468C365.584 520.468 307.909 520.468 248.631 520.468C190.956 520.468 131.679 520.468 74.0032 520.468C16.3278 520.468 -42.9496 520.468 -71.7873 520.468H-100.625V820.6Z" fill="#F5FCFF"/>
</svg>
